<svg width="38" height="38" viewBox="0 0 38 38" fill="none" xmlns="http://www.w3.org/2000/svg">
<path d="M34.9931 18.4753H34.7209C33.6031 13.479 29.1415 9.72699 23.8147 9.72699H20.4126V8.48279C22.104 7.88013 23.3287 6.27628 23.3287 4.38082C23.3287 1.97019 21.3652 0.00668704 18.9546 0.00668704C16.544 0.00668704 14.5805 1.97019 14.5805 4.38082C14.5805 6.27628 15.8052 7.88013 17.4965 8.48279V9.72699H14.0944C8.76771 9.72699 4.30609 13.479 3.18826 18.4753H2.91609C1.31224 18.4753 0 19.7875 0 21.3914V24.3074C0 25.9113 1.31224 27.2235 2.91609 27.2235H3.45071C4.5977 30.8006 7.49435 33.5806 11.1297 34.5915C10.8576 35.165 10.6923 35.7871 10.6923 36.4578C10.6923 37.2646 11.3436 37.9159 12.1504 37.9159H25.7588C26.5656 37.9159 27.2168 37.2646 27.2168 36.4578C27.2168 35.7871 27.0516 35.1553 26.7794 34.5915C30.4148 33.5903 33.3115 30.8006 34.4585 27.2235H34.9931C36.5969 27.2235 37.9092 25.9113 37.9092 24.3074V21.3914C37.9092 19.7875 36.5969 18.4753 34.9931 18.4753ZM18.9546 2.92278C19.7614 2.92278 20.4126 3.57404 20.4126 4.38082C20.4126 5.18761 19.7614 5.83887 18.9546 5.83887C18.1478 5.83887 17.4965 5.18761 17.4965 4.38082C17.4965 3.57404 18.1478 2.92278 18.9546 2.92278ZM23.8147 32.0837H14.0944C9.53562 32.0837 5.83218 28.3803 5.83218 23.8214V20.9053C5.83218 16.3465 9.53562 12.6431 14.0944 12.6431H23.8147C28.3736 12.6431 32.077 16.3465 32.077 20.9053V23.8214C32.077 28.3803 28.3736 32.0837 23.8147 32.0837Z" fill="#00ADEF"/>
<path d="M13.6084 16.5312C12.0046 16.5312 10.6923 17.8434 10.6923 19.4473V22.3634C10.6923 23.9672 12.0046 25.2795 13.6084 25.2795C15.2123 25.2795 16.5245 23.9672 16.5245 22.3634V19.4473C16.5245 17.8434 15.2123 16.5312 13.6084 16.5312Z" fill="#00ADEF"/>
<path d="M24.3008 16.5312C22.6969 16.5312 21.3847 17.8434 21.3847 19.4473V22.3634C21.3847 23.9672 22.6969 25.2795 24.3008 25.2795C25.9046 25.2795 27.2168 23.9672 27.2168 22.3634V19.4473C27.2168 17.8434 25.9046 16.5312 24.3008 16.5312Z" fill="#00ADEF"/>
<path d="M8.77743 2.84502L11.6935 3.81704C11.8491 3.86565 12.0046 3.89481 12.1504 3.89481C12.7628 3.89481 13.3265 3.506 13.5307 2.89362C13.7834 2.12571 13.3751 1.29949 12.6072 1.04676L9.69114 0.0747298C8.93296 -0.177998 8.10673 0.230255 7.84428 0.998159C7.58184 1.76606 7.99981 2.59229 8.76771 2.84502H8.77743Z" fill="#00ADEF"/>
<path d="M9.23429 8.75496C9.38981 8.75496 9.54534 8.73552 9.69114 8.6772L12.6072 7.70517C13.3751 7.45244 13.7834 6.62621 13.5307 5.85831C13.2779 5.0904 12.4517 4.68215 11.6838 4.93488L8.76771 5.90691C7.99981 6.15964 7.59156 6.98586 7.84428 7.75377C8.04841 8.36615 8.61219 8.75496 9.22457 8.75496H9.23429Z" fill="#00ADEF"/>
<path d="M25.7588 3.89481C25.9143 3.89481 26.0699 3.87537 26.2157 3.81704L29.1318 2.84502C29.8997 2.59229 30.3079 1.76606 30.0552 0.998159C29.8024 0.230255 28.9762 -0.177998 28.2083 0.0747298L25.2922 1.04676C24.5243 1.29949 24.1161 2.12571 24.3688 2.89362C24.5729 3.506 25.1367 3.89481 25.7491 3.89481H25.7588Z" fill="#00ADEF"/>
<path d="M25.3019 7.70517L28.218 8.6772C28.3736 8.7258 28.5291 8.75496 28.6749 8.75496C29.2873 8.75496 29.851 8.36615 30.0552 7.75377C30.3079 6.98586 29.8997 6.15964 29.1318 5.90691L26.2157 4.93488C25.4575 4.68215 24.6215 5.0904 24.3688 5.85831C24.1161 6.62621 24.5243 7.45244 25.2922 7.70517H25.3019Z" fill="#00ADEF"/>
</svg>
