<svg width="121" height="47" viewBox="0 0 121 47" fill="none" xmlns="http://www.w3.org/2000/svg">
<path d="M42.4615 22.4144H42.1313C40.7749 16.353 35.361 11.8009 28.8974 11.8009H24.7692V10.2915C26.8215 9.5603 28.3077 7.61449 28.3077 5.3149C28.3077 2.39028 25.9251 0.00813856 23 0.00813856C20.0749 0.00813856 17.6923 2.39028 17.6923 5.3149C17.6923 7.61449 19.1785 9.5603 21.2308 10.2915V11.8009H17.1026C10.639 11.8009 5.22513 16.353 3.86872 22.4144H3.53846C1.59231 22.4144 0 24.0065 0 25.9523V29.4901C0 31.4359 1.59231 33.028 3.53846 33.028H4.18719C5.57898 37.3677 9.09385 40.7405 13.5051 41.9669C13.1749 42.6627 12.9744 43.4174 12.9744 44.2311C12.9744 45.2099 13.7646 46 14.7436 46H31.2564C32.2354 46 33.0256 45.2099 33.0256 44.2311C33.0256 43.4174 32.8251 42.6509 32.4949 41.9669C36.9062 40.7523 40.421 37.3677 41.8128 33.028H42.4615C44.4077 33.028 46 31.4359 46 29.4901V25.9523C46 24.0065 44.4077 22.4144 42.4615 22.4144ZM23 3.54598C23.979 3.54598 24.7692 4.33609 24.7692 5.3149C24.7692 6.2937 23.979 7.08381 23 7.08381C22.021 7.08381 21.2308 6.2937 21.2308 5.3149C21.2308 4.33609 22.021 3.54598 23 3.54598ZM28.8974 38.9244H17.1026C11.5708 38.9244 7.07693 34.4313 7.07693 28.9005V25.3626C7.07693 19.8318 11.5708 15.3388 17.1026 15.3388H28.8974C34.4292 15.3388 38.9231 19.8318 38.9231 25.3626V28.9005C38.9231 34.4313 34.4292 38.9244 28.8974 38.9244Z" fill="#00ADEF"/>
<path d="M16.5128 20.0559C14.5667 20.0559 12.9744 21.6479 12.9744 23.5937V27.1316C12.9744 29.0774 14.5667 30.6694 16.5128 30.6694C18.459 30.6694 20.0513 29.0774 20.0513 27.1316V23.5937C20.0513 21.6479 18.459 20.0559 16.5128 20.0559Z" fill="#00ADEF"/>
<path d="M29.4872 20.0559C27.541 20.0559 25.9487 21.6479 25.9487 23.5937V27.1316C25.9487 29.0774 27.541 30.6694 29.4872 30.6694C31.4333 30.6694 33.0256 29.0774 33.0256 27.1316V23.5937C33.0256 21.6479 31.4333 20.0559 29.4872 20.0559Z" fill="#00ADEF"/>
<path d="M10.6508 3.45164L14.1892 4.63092C14.378 4.68988 14.5667 4.72526 14.7436 4.72526C15.4867 4.72526 16.1708 4.25355 16.4185 3.5106C16.7251 2.57897 16.2298 1.57659 15.298 1.26997L11.7595 0.0906934C10.8395 -0.215919 9.83692 0.279381 9.51846 1.21101C9.2 2.14264 9.70718 3.14503 10.639 3.45164H10.6508Z" fill="#00ADEF"/>
<path d="M11.2051 10.6217C11.3938 10.6217 11.5826 10.5981 11.7595 10.5273L15.298 9.34803C16.2298 9.04142 16.7251 8.03903 16.4185 7.1074C16.1118 6.17577 15.1092 5.68047 14.1774 5.98708L10.639 7.16637C9.70718 7.47298 9.21179 8.47537 9.51846 9.407C9.76615 10.1499 10.4503 10.6217 11.1933 10.6217H11.2051Z" fill="#00ADEF"/>
<path d="M31.2564 4.72526C31.4451 4.72526 31.6338 4.70168 31.8108 4.63092L35.3492 3.45164C36.281 3.14503 36.7764 2.14264 36.4697 1.21101C36.1631 0.279381 35.1605 -0.215919 34.2287 0.0906934L30.6903 1.26997C29.7585 1.57659 29.2631 2.57897 29.5698 3.5106C29.8174 4.25355 30.5015 4.72526 31.2446 4.72526H31.2564Z" fill="#00ADEF"/>
<path d="M30.702 9.34803L34.2405 10.5273C34.4292 10.5863 34.618 10.6217 34.7949 10.6217C35.538 10.6217 36.222 10.1499 36.4697 9.407C36.7764 8.47537 36.281 7.47298 35.3492 7.16637L31.8108 5.98708C30.8908 5.68047 29.8764 6.17577 29.5698 7.1074C29.2631 8.03903 29.7585 9.04142 30.6903 9.34803H30.702Z" fill="#00ADEF"/>
<path d="M97.1151 22V7.98275H102.029V22H97.1151ZM99.572 6.43103C98.6754 6.43103 97.9513 6.18103 97.3996 5.68103C96.8478 5.18103 96.572 4.56034 96.572 3.81896C96.572 3.07758 96.8478 2.45689 97.3996 1.95689C97.9513 1.45689 98.6754 1.20689 99.572 1.20689C100.469 1.20689 101.193 1.44827 101.744 1.93103C102.296 2.39655 102.572 3 102.572 3.74138C102.572 4.51724 102.296 5.16379 101.744 5.68103C101.21 6.18103 100.486 6.43103 99.572 6.43103Z" fill="white"/>
<path fill-rule="evenodd" clip-rule="evenodd" d="M58.2826 45.7502V30.9045H62.9895V45.7502H58.2826ZM60.9285 28.9836C59.963 28.9836 59.1832 28.7144 58.589 28.1759C57.9949 27.6374 57.6978 26.969 57.6978 26.1706C57.6978 25.3722 57.9949 24.7038 58.589 24.1653C58.7541 24.0157 58.9334 23.8869 59.1271 23.7789C59.4932 23.6646 59.8987 23.6074 60.3437 23.6074C60.9348 23.6074 61.4563 23.7048 61.9083 23.8997C62.1945 24.0231 62.4528 24.1856 62.6832 24.3872C63.2773 24.8886 63.5744 25.5384 63.5744 26.3368C63.5744 26.5749 63.5503 26.8017 63.502 27.0172C63.381 27.5579 63.108 28.0274 62.6832 28.4257C62.5224 28.5761 62.3457 28.7055 62.153 28.8139C61.7878 28.927 61.3796 28.9836 60.9285 28.9836Z" fill="white"/>
<path fill-rule="evenodd" clip-rule="evenodd" d="M67.6755 21.4569C68.5203 21.9741 69.5376 22.2328 70.7272 22.2328C72.0031 22.2328 73.1583 21.9397 74.1927 21.3534C75.2445 20.7672 76.0721 19.931 76.6755 18.8448C77.2962 17.7586 77.6065 16.4741 77.6065 14.9914C77.6065 13.5086 77.2962 12.2328 76.6755 11.1638C76.0721 10.0776 75.2445 9.24138 74.1927 8.65517C73.1583 8.05172 72.0031 7.75 70.7272 7.75C69.4686 7.75 68.4169 8.00862 67.5721 8.52586C67.2034 8.75626 66.8758 9.04139 66.5893 9.38126V7.98275H61.9083V23.4607C62.4367 23.5811 62.89 23.8066 63.2681 24.1374C63.8622 24.6388 64.1593 25.2886 64.1593 26.087C64.1593 26.4191 64.1124 26.7292 64.0185 27.0172H66.8221V20.7604C67.0796 21.0277 67.3641 21.2599 67.6755 21.4569ZM63.502 27.0172C63.5503 26.8017 63.5744 26.5749 63.5744 26.3368C63.5744 25.5384 63.2773 24.8886 62.6832 24.3872C62.4528 24.1856 62.1945 24.0231 61.9083 23.8997V27.0172H63.502ZM71.1669 17.9397C70.7359 18.1983 70.2445 18.3276 69.6927 18.3276C69.141 18.3276 68.641 18.1983 68.1927 17.9397C67.7617 17.681 67.4083 17.3017 67.1324 16.8017C66.8738 16.3017 66.7445 15.6983 66.7445 14.9914C66.7445 14.2845 66.8738 13.681 67.1324 13.181C67.4083 12.681 67.7617 12.3017 68.1927 12.0431C68.641 11.7845 69.141 11.6552 69.6927 11.6552C70.2445 11.6552 70.7359 11.7845 71.1669 12.0431C71.6152 12.3017 71.9686 12.681 72.2272 13.181C72.5031 13.681 72.641 14.2845 72.641 14.9914C72.641 15.6983 72.5031 16.3017 72.2272 16.8017C71.9686 17.3017 71.6152 17.681 71.1669 17.9397Z" fill="white"/>
<path fill-rule="evenodd" clip-rule="evenodd" d="M42.7257 22C42.3968 20.7211 41.8861 19.5142 41.2228 18.4088L47.629 3.89655H52.6721L60.6893 22H55.3617L53.9502 18.4828H46.2733L44.8617 22H42.7257ZM50.1117 8.91838L52.4348 14.7069H47.7887L50.1117 8.91838Z" fill="white"/>
<path fill-rule="evenodd" clip-rule="evenodd" d="M82.8388 21.3017C84.0284 21.9224 85.3905 22.2328 86.925 22.2328C88.4594 22.2328 89.8215 21.9224 91.0112 21.3017C92.2181 20.681 93.1578 19.8276 93.8302 18.7414C94.5026 17.6379 94.8388 16.3793 94.8388 14.9655C94.8388 13.5517 94.5026 12.3017 93.8302 11.2155C93.1578 10.1293 92.2181 9.28448 91.0112 8.68103C89.8215 8.06034 88.4594 7.75 86.925 7.75C85.3905 7.75 84.0284 8.06034 82.8388 8.68103C81.6491 9.28448 80.7094 10.1293 80.0198 11.2155C79.3474 12.3017 79.0112 13.5517 79.0112 14.9655C79.0112 16.3793 79.3474 17.6379 80.0198 18.7414C80.7094 19.8276 81.6491 20.681 82.8388 21.3017ZM83.8866 13.5378C83.8866 11.867 85.2539 10.5 86.925 10.5C88.5961 10.5 89.9633 11.867 89.9633 13.5378V16.5757C89.9633 18.2465 88.5961 19.6135 86.925 19.6135C85.2539 19.6135 83.8866 18.2465 83.8866 16.5757V13.5378Z" fill="white"/>
<path fill-rule="evenodd" clip-rule="evenodd" d="M108.17 21.3017C109.36 21.9224 110.722 22.2328 112.257 22.2328C113.791 22.2328 115.153 21.9224 116.343 21.3017C117.55 20.681 118.489 19.8276 119.162 18.7414C119.834 17.6379 120.171 16.3793 120.171 14.9655C120.171 13.5517 119.834 12.3017 119.162 11.2155C118.489 10.1293 117.55 9.28448 116.343 8.68103C115.153 8.06034 113.791 7.75 112.257 7.75C110.722 7.75 109.36 8.06034 108.17 8.68103C106.981 9.28448 106.041 10.1293 105.352 11.2155C104.679 12.3017 104.343 13.5517 104.343 14.9655C104.343 16.3793 104.679 17.6379 105.352 18.7414C106.041 19.8276 106.981 20.681 108.17 21.3017ZM109.218 13.5378C109.218 11.867 110.586 10.5 112.257 10.5C113.928 10.5 115.295 11.867 115.295 13.5378V16.5757C115.295 18.2465 113.928 19.6135 112.257 19.6135C110.586 19.6135 109.218 18.2465 109.218 16.5757V13.5378Z" fill="white"/>
<path d="M57.6981 46V30.9045H58.2826H62.9895V45.7502L62.9899 46H57.6981ZM60.344 29.2334C59.3785 29.2334 58.5986 28.9642 58.0045 28.4257C57.4103 27.8872 57.1132 27.2188 57.1132 26.4204C57.1132 25.622 57.4103 24.9535 58.0045 24.4151C58.3248 24.1248 58.6988 23.9127 59.1271 23.7789C59.4932 23.6646 59.8987 23.6074 60.3437 23.6074C61.3092 23.6074 62.089 23.8673 62.6832 24.3872C63.2773 24.8886 63.5744 25.5384 63.5744 26.3368C63.5744 27.1724 63.2773 27.8687 62.6832 28.4257C62.5224 28.5761 62.3457 28.7055 62.153 28.8139C61.656 29.0936 61.0532 29.2334 60.344 29.2334Z" fill="white"/>
<path d="M76.2605 30.6538C77.4302 30.6538 78.4886 30.8952 79.4355 31.3779C80.3825 31.8421 81.1252 32.5663 81.6636 33.5504C82.2207 34.5344 82.4992 35.8063 82.4992 37.366V46H77.2074V38.2294C77.2074 37.1525 76.9846 36.3726 76.539 35.8899C76.1119 35.3886 75.5085 35.1379 74.7286 35.1379C74.1716 35.1379 73.661 35.2679 73.1968 35.5278C72.7326 35.7692 72.3705 36.1498 72.1106 36.6697C71.8506 37.1896 71.7207 37.8673 71.7207 38.7029V46H66.4289V30.9045H71.47V35.1936L70.4952 33.9403C71.0708 32.8448 71.8599 32.0278 72.8626 31.4894C73.8652 30.9323 74.9979 30.6538 76.2605 30.6538Z" fill="white"/>
<path d="M92.1717 46.2506C90.9462 46.2506 89.8414 46.0092 88.8574 45.5265C87.8918 45.0437 87.1306 44.2917 86.5735 43.2705C86.0351 42.2307 85.7658 40.9217 85.7658 39.3435V30.9045H91.0576V38.4801C91.0576 39.6498 91.2712 40.4854 91.6982 40.9867C92.1438 41.488 92.7658 41.7387 93.5643 41.7387C94.0841 41.7387 94.5576 41.618 94.9847 41.3766C95.4117 41.1352 95.7552 40.7546 96.0152 40.2347C96.2751 39.6962 96.4051 39.0092 96.4051 38.1737V30.9045H101.697V46H96.6558V41.7387L97.6306 42.9363C97.1107 44.0504 96.3587 44.8859 95.3746 45.4429C94.3905 45.9814 93.3229 46.2506 92.1717 46.2506Z" fill="white"/>
<path d="M103.351 46L110.286 36.8925L110.174 39.9005L103.518 30.9045H109.478L113.21 36.2241L110.982 36.3355L114.937 30.9045H120.535L113.879 39.7055V36.809L120.73 46H114.686L110.787 40.3183L113.015 40.6246L109.088 46H103.351Z" fill="white"/>
<path fill-rule="evenodd" clip-rule="evenodd" d="M58.2826 45.7502V30.9045H62.9895V45.7502H58.2826ZM60.9285 28.9836C59.963 28.9836 59.1832 28.7144 58.589 28.1759C57.9949 27.6374 57.6978 26.969 57.6978 26.1706C57.6978 25.3722 57.9949 24.7038 58.589 24.1653C58.7541 24.0157 58.9334 23.8869 59.1271 23.7789C59.4932 23.6646 59.8987 23.6074 60.3437 23.6074C61.3092 23.6074 62.089 23.8673 62.6832 24.3872C63.2773 24.8886 63.5744 25.5384 63.5744 26.3368C63.5744 27.1724 63.2773 27.8687 62.6832 28.4257C62.5224 28.5761 62.3457 28.7055 62.153 28.8139C61.7878 28.927 61.3796 28.9836 60.9285 28.9836Z" fill="white"/>
<path fill-rule="evenodd" clip-rule="evenodd" d="M40.9496 46V36.1488C41.5 35.2454 41.9478 34.2726 42.277 33.2463H42.9257C44.8719 33.2463 46.4642 31.6543 46.4642 29.7084V41.6273H55.7666V46H40.9496Z" fill="white"/>
</svg>
