<svg width="161" height="61" viewBox="0 0 161 61" fill="none" xmlns="http://www.w3.org/2000/svg">
<path d="M4.81831 24.1452V1.60968H14.573C16.5904 1.60968 18.3289 1.94235 19.7884 2.60769C21.2478 3.25156 22.3746 4.18517 23.1687 5.40853C23.9628 6.63189 24.3598 8.09134 24.3598 9.78687C24.3598 11.4609 23.9628 12.9097 23.1687 14.133C22.3746 15.3564 21.2478 16.3007 19.7884 16.9661C18.3289 17.6099 16.5904 17.9319 14.573 17.9319H7.71573L10.0337 15.5817V20.3893C7.75433 20.5265 5.90217 21.999 4.81831 24.1452ZM10.0337 16.1612L7.71573 13.6823H14.2832C15.8929 13.6823 17.0948 13.3389 17.8889 12.6521C18.683 11.9653 19.0801 11.0102 19.0801 9.78687C19.0801 8.54205 18.683 7.57624 17.8889 6.88944C17.0948 6.20264 15.8929 5.85924 14.2832 5.85924H7.71573L10.0337 3.38033V16.1612Z" fill="white"/>
<path d="M27.6977 20.9259V6.82505H32.4945V11.7185L31.8185 10.302C32.3336 9.07861 33.1599 8.15573 34.2974 7.53331C35.4349 6.88944 36.8192 6.56751 38.4504 6.56751V11.2034C38.2357 11.1819 38.0426 11.1712 37.8709 11.1712C37.6992 11.1497 37.5167 11.139 37.3236 11.139C35.95 11.139 34.8339 11.5361 33.9754 12.3302C33.1384 13.1028 32.7199 14.3154 32.7199 15.9681L32.4945 23.0721C30.7666 21.2199 29.9119 21.0988 27.6977 20.9259Z" fill="white"/>
<path d="M49.5524 24.4028C47.7066 24.4028 46.0647 24.0165 44.6268 23.2438C43.2102 22.4712 42.0835 21.4195 41.2464 20.0888C40.4309 18.7367 40.0231 17.2021 40.0231 15.4851C40.0231 13.7467 40.4309 12.2121 41.2464 10.8815C42.0835 9.52932 43.2102 8.47766 44.6268 7.72648C46.0647 6.95383 47.7066 6.56751 49.5524 6.56751C51.3767 6.56751 53.0078 6.95383 54.4458 7.72648C55.8838 8.47766 57.0106 9.51859 57.8262 10.8493C58.6417 12.1799 59.0495 13.7252 59.0495 15.4851C59.0495 17.2021 58.6417 18.7367 57.8262 20.0888C57.0106 21.4195 55.8838 22.4712 54.4458 23.2438C53.0078 24.0165 51.3767 24.4028 49.5524 24.4028ZM49.5524 20.282C50.3894 20.282 51.1406 20.0888 51.8059 19.7025C52.4713 19.3162 52.9971 18.7689 53.3834 18.0606C53.7698 17.3309 53.9629 16.4724 53.9629 15.4851C53.9629 14.4764 53.7698 13.6179 53.3834 12.9097C52.9971 12.2014 52.4713 11.6541 51.8059 11.2678C51.1406 10.8815 50.3894 10.6883 49.5524 10.6883C48.7153 10.6883 47.9642 10.8815 47.2988 11.2678C46.6335 11.6541 46.0969 12.2014 45.6891 12.9097C45.3028 13.6179 45.1097 14.4764 45.1097 15.4851C45.1097 16.4724 45.3028 17.3309 45.6891 18.0606C46.0969 18.7689 46.6335 19.3162 47.2988 19.7025C47.9642 20.0888 48.7153 20.282 49.5524 20.282Z" fill="white"/>
<path d="M63.0181 24.1452V6.43873C63.0181 4.48565 63.5976 2.92962 64.7566 1.77065C65.9156 0.590217 67.5682 0 69.7144 0C70.4441 0 71.1417 0.0751188 71.807 0.225356C72.4938 0.375593 73.0733 0.61168 73.5455 0.933617L72.2255 4.5715C71.9465 4.37834 71.6353 4.2281 71.2919 4.12079C70.9485 4.01348 70.5836 3.95982 70.1973 3.95982C69.4676 3.95982 68.8988 4.17444 68.4911 4.60369C68.1047 5.01148 67.9116 5.63389 67.9116 6.47092V8.08061L68.0403 10.2376V24.1452H63.0181ZM60.3461 11.0746V7.21138H72.3543V11.0746H60.3461Z" fill="white"/>
<path d="M83.232 24.4028C81.2574 24.4028 79.519 24.0165 78.0166 23.2438C76.5357 22.4712 75.3874 21.4195 74.5719 20.0888C73.7563 18.7367 73.3485 17.2021 73.3485 15.4851C73.3485 13.7467 73.7456 12.2121 74.5397 10.8815C75.3553 9.52932 76.4606 8.47766 77.8556 7.72648C79.2507 6.95383 80.8282 6.56751 82.5881 6.56751C84.2836 6.56751 85.8075 6.93237 87.1596 7.66209C88.5332 8.37035 89.617 9.40055 90.4112 10.7527C91.2053 12.0834 91.6023 13.6823 91.6023 15.5495C91.6023 15.7427 91.5916 15.9681 91.5701 16.2256C91.5487 16.4617 91.5272 16.687 91.5057 16.9017H77.4371V13.972H88.8659L86.9342 14.8413C86.9342 13.9399 86.7518 13.1565 86.3869 12.4911C86.0221 11.8258 85.5177 11.3107 84.8738 10.9458C84.23 10.5595 83.4788 10.3664 82.6203 10.3664C81.7618 10.3664 80.9999 10.5595 80.3345 10.9458C79.6907 11.3107 79.1863 11.8365 78.8214 12.5233C78.4566 13.1887 78.2741 13.9828 78.2741 14.9057V15.6783C78.2741 16.6227 78.478 17.4597 78.8858 18.1894C79.3151 18.8977 79.9053 19.445 80.6565 19.8313C81.4291 20.1961 82.3305 20.3786 83.3607 20.3786C84.2836 20.3786 85.0885 20.2391 85.7753 19.9601C86.4835 19.681 87.1274 19.2625 87.7069 18.7045L90.379 21.6019C89.5849 22.5034 88.5868 23.2009 87.385 23.6945C86.1831 24.1667 84.7987 24.4028 83.232 24.4028Z" fill="white"/>
<path d="M100.773 24.4028C99.2921 24.4028 97.8648 24.2311 96.4912 23.8877C95.1391 23.5228 94.066 23.0721 93.2719 22.5356L94.9459 18.9299C95.74 19.4235 96.6737 19.8313 97.7468 20.1532C98.8414 20.4537 99.9145 20.6039 100.966 20.6039C102.125 20.6039 102.941 20.4644 103.413 20.1854C103.906 19.9064 104.153 19.5201 104.153 19.0264C104.153 18.6187 103.96 18.3182 103.574 18.125C103.209 17.9104 102.715 17.7494 102.093 17.6421C101.471 17.5348 100.784 17.4275 100.033 17.3202C99.3028 17.2129 98.5624 17.0734 97.8112 16.9017C97.06 16.7085 96.3732 16.4295 95.7508 16.0646C95.1284 15.6998 94.624 15.2061 94.2377 14.5837C93.8728 13.9613 93.6904 13.1565 93.6904 12.1692C93.6904 11.0746 94.0016 10.1088 94.624 9.27177C95.2679 8.43474 96.1907 7.78013 97.3926 7.30796C98.5945 6.81432 100.033 6.56751 101.707 6.56751C102.887 6.56751 104.089 6.69628 105.312 6.95383C106.536 7.21138 107.555 7.58697 108.371 8.08061L106.697 11.6541C105.86 11.1605 105.012 10.8278 104.153 10.6561C103.316 10.4629 102.501 10.3664 101.707 10.3664C100.591 10.3664 99.775 10.5166 99.2599 10.8171C98.7448 11.1175 98.4872 11.5039 98.4872 11.976C98.4872 12.4053 98.6697 12.7272 99.0345 12.9418C99.4208 13.1565 99.9252 13.3282 100.548 13.4569C101.17 13.5857 101.846 13.7038 102.576 13.8111C103.327 13.8969 104.078 14.0364 104.829 14.2296C105.581 14.4228 106.257 14.7018 106.858 15.0666C107.48 15.41 107.984 15.8929 108.371 16.5153C108.757 17.1163 108.95 17.9104 108.95 18.8977C108.95 19.9708 108.628 20.9259 107.984 21.7629C107.34 22.5785 106.407 23.2224 105.184 23.6945C103.982 24.1667 102.511 24.4028 100.773 24.4028Z" fill="white"/>
<path d="M117.876 24.4028C116.395 24.4028 114.968 24.2311 113.594 23.8877C112.242 23.5228 111.169 23.0721 110.375 22.5356L112.049 18.9299C112.843 19.4235 113.777 19.8313 114.85 20.1532C115.944 20.4537 117.017 20.6039 118.069 20.6039C119.228 20.6039 120.044 20.4644 120.516 20.1854C121.009 19.9064 121.256 19.5201 121.256 19.0264C121.256 18.6187 121.063 18.3182 120.677 18.125C120.312 17.9104 119.818 17.7494 119.196 17.6421C118.573 17.5348 117.887 17.4275 117.135 17.3202C116.406 17.2129 115.665 17.0734 114.914 16.9017C114.163 16.7085 113.476 16.4295 112.854 16.0646C112.231 15.6998 111.727 15.2061 111.341 14.5837C110.976 13.9613 110.793 13.1565 110.793 12.1692C110.793 11.0746 111.104 10.1088 111.727 9.27177C112.371 8.43474 113.294 7.78013 114.496 7.30796C115.697 6.81432 117.135 6.56751 118.809 6.56751C119.99 6.56751 121.192 6.69628 122.415 6.95383C123.639 7.21138 124.658 7.58697 125.474 8.08061L123.799 11.6541C122.962 11.1605 122.115 10.8278 121.256 10.6561C120.419 10.4629 119.604 10.3664 118.809 10.3664C117.693 10.3664 116.878 10.5166 116.363 10.8171C115.848 11.1175 115.59 11.5039 115.59 11.976C115.59 12.4053 115.773 12.7272 116.137 12.9418C116.524 13.1565 117.028 13.3282 117.65 13.4569C118.273 13.5857 118.949 13.7038 119.679 13.8111C120.43 13.8969 121.181 14.0364 121.932 14.2296C122.683 14.4228 123.36 14.7018 123.96 15.0666C124.583 15.41 125.087 15.8929 125.474 16.5153C125.86 17.1163 126.053 17.9104 126.053 18.8977C126.053 19.9708 125.731 20.9259 125.087 21.7629C124.443 22.5785 123.51 23.2224 122.286 23.6945C121.084 24.1667 119.614 24.4028 117.876 24.4028Z" fill="white"/>
<path d="M137.393 24.4028C135.547 24.4028 133.906 24.0165 132.468 23.2438C131.051 22.4712 129.924 21.4195 129.087 20.0888C128.272 18.7367 127.864 17.2021 127.864 15.4851C127.864 13.7467 128.272 12.2121 129.087 10.8815C129.924 9.52932 131.051 8.47766 132.468 7.72648C133.906 6.95383 135.547 6.56751 137.393 6.56751C139.218 6.56751 140.849 6.95383 142.287 7.72648C143.725 8.47766 144.851 9.51859 145.667 10.8493C146.483 12.1799 146.89 13.7252 146.89 15.4851C146.89 17.2021 146.483 18.7367 145.667 20.0888C144.851 21.4195 143.725 22.4712 142.287 23.2438C140.849 24.0165 139.218 24.4028 137.393 24.4028ZM137.393 20.282C138.23 20.282 138.981 20.0888 139.647 19.7025C140.312 19.3162 140.838 18.7689 141.224 18.0606C141.611 17.3309 141.804 16.4724 141.804 15.4851C141.804 14.4764 141.611 13.6179 141.224 12.9097C140.838 12.2014 140.312 11.6541 139.647 11.2678C138.981 10.8815 138.23 10.6883 137.393 10.6883C136.556 10.6883 135.805 10.8815 135.14 11.2678C134.474 11.6541 133.938 12.2014 133.53 12.9097C133.144 13.6179 132.951 14.4764 132.951 15.4851C132.951 16.4724 133.144 17.3309 133.53 18.0606C133.938 18.7689 134.474 19.3162 135.14 19.7025C135.805 20.0888 136.556 20.282 137.393 20.282Z" fill="white"/>
<path d="M150.247 24.1452V6.82505H155.044V11.7185L154.368 10.302C154.883 9.07861 155.71 8.15573 156.847 7.53331C157.985 6.88944 159.369 6.56751 161 6.56751V11.2034C160.785 11.1819 160.592 11.1712 160.421 11.1712C160.249 11.1497 160.066 11.139 159.873 11.139C158.5 11.139 157.384 11.5361 156.525 12.3302C155.688 13.1028 155.27 14.3154 155.27 15.9681V24.1452H150.247Z" fill="white"/>
<path d="M50.9689 58.7641L41.2464 36.2286H46.8803L55.3794 56.1886H52.0635L60.6914 36.2286H65.8746L56.1199 58.7641H50.9689Z" fill="white"/>
<path d="M67.685 58.7641V41.444H72.7072V58.7641H67.685ZM70.1961 39.0294C69.2732 39.0294 68.522 38.7611 67.9425 38.2246C67.363 37.688 67.0733 37.0227 67.0733 36.2286C67.0733 35.4345 67.363 34.7691 67.9425 34.2326C68.522 33.696 69.2732 33.4277 70.1961 33.4277C71.1189 33.4277 71.8701 33.6853 72.4496 34.2004C73.0291 34.694 73.3188 35.3379 73.3188 36.132C73.3188 36.969 73.0291 37.6666 72.4496 38.2246C71.8916 38.7611 71.1404 39.0294 70.1961 39.0294Z" fill="white"/>
<path d="M77.3682 58.7641V41.444H82.1651V46.3374L81.489 44.9209C82.0041 43.6975 82.8304 42.7746 83.9679 42.1522C85.1054 41.5083 86.4897 41.1864 88.1209 41.1864V45.8223C87.9063 45.8008 87.7131 45.7901 87.5414 45.7901C87.3697 45.7686 87.1873 45.7579 86.9941 45.7579C85.6205 45.7579 84.5045 46.155 83.646 46.9491C82.8089 47.7217 82.3904 48.9343 82.3904 50.5869V58.7641H77.3682Z" fill="white"/>
<path d="M98.787 59.0217C96.7481 59.0217 95.1599 58.5066 94.0224 57.4764C92.8849 56.4247 92.3161 54.8687 92.3161 52.8083V37.6129H97.3383V52.7439C97.3383 53.4736 97.5315 54.0424 97.9178 54.4502C98.3041 54.8365 98.83 55.0297 99.4953 55.0297C100.289 55.0297 100.965 54.815 101.524 54.3858L102.876 57.9271C102.361 58.292 101.738 58.571 101.008 58.7641C100.3 58.9358 99.5597 59.0217 98.787 59.0217ZM89.644 45.6935V41.8303H101.652V45.6935H89.644Z" fill="white"/>
<path d="M113.003 59.0217C111.565 59.0217 110.277 58.7427 109.14 58.1847C108.024 57.6266 107.154 56.7789 106.532 55.6414C105.909 54.4824 105.598 53.0122 105.598 51.2308V41.444H110.62V50.4904C110.62 51.9284 110.921 52.9907 111.522 53.6775C112.144 54.3429 113.014 54.6755 114.13 54.6755C114.902 54.6755 115.589 54.5146 116.19 54.1926C116.791 53.8492 117.263 53.3341 117.606 52.6473C117.95 51.9391 118.122 51.0591 118.122 50.0075V41.444H123.144V58.7641H118.379V53.9995L119.248 55.3838C118.669 56.5857 117.81 57.4979 116.673 58.1203C115.557 58.7212 114.333 59.0217 113.003 59.0217Z" fill="white"/>
<path d="M138.42 58.7641V55.3838L138.099 54.6433V48.5909C138.099 47.5178 137.766 46.6808 137.1 46.0798C136.457 45.4789 135.459 45.1784 134.106 45.1784C133.184 45.1784 132.271 45.3287 131.37 45.6291C130.49 45.9081 129.739 46.2945 129.116 46.7881L127.314 43.279C128.258 42.6137 129.395 42.0986 130.726 41.7337C132.057 41.3688 133.409 41.1864 134.783 41.1864C137.422 41.1864 139.472 41.8088 140.932 43.0536C142.391 44.2985 143.121 46.2408 143.121 48.8807V58.7641H138.42ZM133.141 59.0217C131.789 59.0217 130.63 58.7963 129.664 58.3456C128.698 57.8734 127.957 57.2403 127.442 56.4462C126.927 55.6521 126.67 54.7614 126.67 53.7741C126.67 52.7439 126.917 51.8425 127.41 51.0699C127.925 50.2972 128.73 49.6963 129.825 49.267C130.919 48.8163 132.347 48.5909 134.106 48.5909H138.71V51.5206H134.654C133.473 51.5206 132.658 51.7137 132.207 52.1001C131.778 52.4864 131.563 52.9693 131.563 53.5488C131.563 54.1926 131.81 54.7077 132.304 55.0941C132.819 55.4589 133.516 55.6414 134.396 55.6414C135.233 55.6414 135.984 55.4482 136.65 55.0619C137.315 54.6541 137.798 54.0639 138.099 53.2912L138.871 55.6092C138.506 56.7252 137.841 57.573 136.875 58.1525C135.909 58.7319 134.664 59.0217 133.141 59.0217Z" fill="white"/>
<path d="M147.666 58.7641V34.8765H152.688V58.7641H147.666Z" fill="white"/>
<path d="M34.9931 41.5474H34.7209C33.6031 36.5511 29.1415 32.7991 23.8147 32.7991H20.4126V31.5549C22.104 30.9522 23.3287 29.3484 23.3287 27.4529C23.3287 25.0423 21.3652 23.0788 18.9546 23.0788C16.544 23.0788 14.5805 25.0423 14.5805 27.4529C14.5805 29.3484 15.8052 30.9522 17.4965 31.5549V32.7991H14.0944C8.76771 32.7991 4.30609 36.5511 3.18826 41.5474H2.91609C1.31224 41.5474 0 42.8596 0 44.4635V47.3796C0 48.9834 1.31224 50.2957 2.91609 50.2957H3.45071C4.5977 53.8727 7.49435 56.6527 11.1297 57.6636C10.8576 58.2371 10.6923 58.8592 10.6923 59.5299C10.6923 60.3367 11.3436 60.988 12.1504 60.988H25.7588C26.5656 60.988 27.2168 60.3367 27.2168 59.5299C27.2168 58.8592 27.0516 58.2274 26.7794 57.6636C30.4148 56.6625 33.3115 53.8727 34.4585 50.2957H34.9931C36.5969 50.2957 37.9092 48.9834 37.9092 47.3796V44.4635C37.9092 42.8596 36.5969 41.5474 34.9931 41.5474ZM18.9546 25.9949C19.7614 25.9949 20.4126 26.6462 20.4126 27.4529C20.4126 28.2597 19.7614 28.911 18.9546 28.911C18.1478 28.911 17.4965 28.2597 17.4965 27.4529C17.4965 26.6462 18.1478 25.9949 18.9546 25.9949ZM23.8147 55.1558H14.0944C9.53562 55.1558 5.83218 51.4524 5.83218 46.8935V43.9774C5.83218 39.4186 9.53562 35.7152 14.0944 35.7152H23.8147C28.3736 35.7152 32.077 39.4186 32.077 43.9774V46.8935C32.077 51.4524 28.3736 55.1558 23.8147 55.1558Z" fill="#00ADEF"/>
<path d="M13.6084 39.6033C12.0046 39.6033 10.6923 40.9156 10.6923 42.5194V45.4355C10.6923 47.0393 12.0046 48.3516 13.6084 48.3516C15.2123 48.3516 16.5245 47.0393 16.5245 45.4355V42.5194C16.5245 40.9156 15.2123 39.6033 13.6084 39.6033Z" fill="#00ADEF"/>
<path d="M24.3008 39.6033C22.6969 39.6033 21.3847 40.9156 21.3847 42.5194V45.4355C21.3847 47.0393 22.6969 48.3516 24.3008 48.3516C25.9046 48.3516 27.2168 47.0393 27.2168 45.4355V42.5194C27.2168 40.9156 25.9046 39.6033 24.3008 39.6033Z" fill="#00ADEF"/>
<path d="M8.77743 25.9171L11.6935 26.8892C11.8491 26.9378 12.0046 26.9669 12.1504 26.9669C12.7628 26.9669 13.3265 26.5781 13.5307 25.9657C13.7834 25.1978 13.3751 24.3716 12.6072 24.1189L9.69114 23.1468C8.93296 22.8941 8.10673 23.3024 7.84428 24.0703C7.58184 24.8382 7.99981 25.6644 8.76771 25.9171H8.77743Z" fill="#00ADEF"/>
<path d="M9.23429 31.8271C9.38981 31.8271 9.54534 31.8076 9.69114 31.7493L12.6072 30.7773C13.3751 30.5246 13.7834 29.6983 13.5307 28.9304C13.2779 28.1625 12.4517 27.7543 11.6838 28.007L8.76771 28.979C7.99981 29.2318 7.59156 30.058 7.84428 30.8259C8.04841 31.4383 8.61219 31.8271 9.22457 31.8271H9.23429Z" fill="#00ADEF"/>
<path d="M25.7588 26.9669C25.9143 26.9669 26.0699 26.9475 26.2157 26.8892L29.1317 25.9171C29.8997 25.6644 30.3079 24.8382 30.0552 24.0703C29.8024 23.3024 28.9762 22.8941 28.2083 23.1468L25.2922 24.1189C24.5243 24.3716 24.1161 25.1978 24.3688 25.9657C24.5729 26.5781 25.1367 26.9669 25.7491 26.9669H25.7588Z" fill="#00ADEF"/>
<path d="M25.3019 30.7773L28.218 31.7493C28.3736 31.7979 28.5291 31.8271 28.6749 31.8271C29.2873 31.8271 29.851 31.4383 30.0552 30.8259C30.3079 30.058 29.8997 29.2318 29.1317 28.979L26.2157 28.007C25.4575 27.7543 24.6215 28.1625 24.3688 28.9304C24.1161 29.6983 24.5243 30.5246 25.2922 30.7773H25.3019Z" fill="#00ADEF"/>
</svg>
