<svg width="32" height="25" viewBox="0 0 32 25" fill="none" xmlns="http://www.w3.org/2000/svg">
<path d="M25.0563 16.5H8.125C5.9375 16.5 4.07813 15.7344 2.54688 14.2031C1.01563 12.6719 0.25 10.8125 0.25 8.625C0.25 6.4375 1.01563 4.57812 2.54688 3.04688C4.07813 1.51562 5.9375 0.75 8.125 0.75C8.62083 0.75 9.03646 0.917708 9.37188 1.25313C9.70729 1.58854 9.875 2.00417 9.875 2.5C9.875 2.99583 9.70729 3.41146 9.37188 3.74688C9.03646 4.08229 8.62083 4.25 8.125 4.25C6.9 4.25 5.86458 4.67292 5.01875 5.51875C4.17292 6.36458 3.75 7.4 3.75 8.625C3.75 9.85 4.17292 10.8854 5.01875 11.7312C5.86458 12.5771 6.9 13 8.125 13H25.0563L20.025 7.925C19.7042 7.60417 19.5365 7.20312 19.5219 6.72187C19.5073 6.24062 19.675 5.825 20.025 5.475C20.3458 5.15417 20.7542 4.99375 21.25 4.99375C21.7458 4.99375 22.1542 5.15417 22.475 5.475L30.525 13.525C30.875 13.875 31.05 14.2833 31.05 14.75C31.05 15.2167 30.875 15.625 30.525 15.975L22.475 24.025C22.125 24.375 21.7167 24.5427 21.25 24.5281C20.7833 24.5135 20.375 24.3312 20.025 23.9812C19.7042 23.6313 19.5365 23.2229 19.5219 22.7563C19.5073 22.2896 19.675 21.8813 20.025 21.5312L25.0563 16.5Z" fill="#E8EAED"/>
</svg>
